<svg width="153" height="153" viewBox="0 0 153 153" fill="none" xmlns="http://www.w3.org/2000/svg">
<rect width="153" height="153" fill="#1E1E1E"/>
<path d="M64.156 57.524C65.372 53.108 67.068 49.78 69.244 47.54C71.484 45.3 74.556 44.18 78.46 44.18C81.532 44.18 83.996 45.172 85.852 47.156C87.708 49.076 88.636 51.476 88.636 54.356C88.636 55.316 88.476 56.436 88.156 57.716C87.452 60.532 86.204 62.58 84.412 63.86C82.62 65.076 80.668 65.684 78.556 65.684C77.468 65.684 76.476 65.62 75.58 65.492C74.748 65.3 73.948 65.076 73.18 64.82L67.516 85.652C65.468 93.268 62.044 99.092 57.244 103.124C52.444 107.092 45.916 109.076 37.66 109.076C30.108 109.076 24.22 107.636 19.996 104.756C15.836 101.876 13.756 97.396 13.756 91.316C13.756 88.372 14.268 85.14 15.292 81.62L22.588 55.796C22.844 54.964 22.972 54.164 22.972 53.396C22.972 52.628 22.844 52.02 22.588 51.572C22.396 51.06 22.108 50.484 21.724 49.844C21.148 49.012 20.86 48.34 20.86 47.828C20.86 47.572 20.924 47.252 21.052 46.868C21.308 46.036 21.884 45.46 22.78 45.14C23.676 44.756 24.988 44.564 26.716 44.564H49.276C52.028 44.564 53.404 45.396 53.404 47.06C53.404 47.444 53.372 47.764 53.308 48.02C53.116 48.596 52.828 49.076 52.444 49.46C52.124 49.78 51.612 50.164 50.908 50.612C49.884 51.188 49.052 51.828 48.412 52.532C47.772 53.236 47.228 54.324 46.78 55.796L38.428 85.172C37.852 87.348 37.564 89.204 37.564 90.74C37.564 95.028 39.868 97.172 44.476 97.172C47.292 97.172 49.628 96.276 51.484 94.484C53.404 92.628 55.004 89.492 56.284 85.076L64.156 57.524ZM117.06 43.988C120.644 43.988 123.94 44.436 126.948 45.332C130.02 46.164 133.124 47.508 136.26 49.364L138.468 47.54C140.004 46.324 141.252 45.492 142.212 45.044C143.236 44.596 144.388 44.372 145.668 44.372C147.204 44.372 148.42 44.724 149.316 45.428C150.212 46.068 150.66 47.028 150.66 48.308C150.66 48.82 150.564 49.364 150.372 49.94L146.34 63.188C145.892 64.724 145.316 65.812 144.612 66.452C143.972 67.092 142.98 67.412 141.636 67.412C140.228 67.412 138.98 66.996 137.892 66.164C136.868 65.268 135.236 63.476 132.996 60.788C130.756 58.228 128.708 56.436 126.852 55.412C125.06 54.324 123.204 53.78 121.284 53.78C119.876 53.78 118.692 54.26 117.732 55.22C116.772 56.116 116.292 57.236 116.292 58.58C116.292 60.116 117.06 61.556 118.596 62.9C120.132 64.18 122.532 65.812 125.796 67.796C129.124 69.78 131.876 71.572 134.052 73.172C136.228 74.772 138.084 76.756 139.62 79.124C141.156 81.492 141.924 84.212 141.924 87.284C141.924 89.268 141.604 91.252 140.964 93.236C139.428 98.356 136.452 102.26 132.036 104.948C127.62 107.572 122.468 108.884 116.58 108.884C112.164 108.884 108.452 108.372 105.444 107.348C102.436 106.324 99.3643 104.596 96.2283 102.164L92.7723 105.044C91.1723 106.388 89.8603 107.316 88.8363 107.828C87.8123 108.276 86.6603 108.5 85.3803 108.5C83.9083 108.5 82.7243 108.148 81.8283 107.444C80.9963 106.74 80.5802 105.78 80.5802 104.564C80.5802 103.924 80.7082 103.252 80.9642 102.548L85.6683 88.244C86.1803 86.58 86.8843 85.396 87.7803 84.692C88.6763 83.988 89.8283 83.636 91.2363 83.636C92.7083 83.636 94.0203 84.148 95.1723 85.172C96.3883 86.196 97.9563 88.052 99.8763 90.74C101.924 93.684 103.812 95.732 105.54 96.884C107.332 98.036 109.444 98.612 111.876 98.612C113.604 98.612 114.916 98.356 115.812 97.844C116.772 97.268 117.444 96.372 117.828 95.156C117.956 94.836 118.02 94.356 118.02 93.716C118.02 92.18 117.284 90.772 115.812 89.492C114.34 88.212 112.068 86.676 108.996 84.884C105.732 82.9 103.076 81.14 101.028 79.604C98.9803 78.004 97.1883 76.02 95.6523 73.652C94.1803 71.284 93.4443 68.5 93.4443 65.3C93.4443 63.06 93.7963 60.852 94.5003 58.676C95.8443 54.26 98.5963 50.708 102.756 48.02C106.916 45.332 111.684 43.988 117.06 43.988Z" fill="#FEB05D"/>
</svg>
